<svg id="Layer_13" data-name="Layer 13" xmlns="http://www.w3.org/2000/svg" viewBox="0 0 512 512"><defs><style>.cls-1{fill:#e95420;}.cls-2{fill:#fff;}</style></defs><title>Artboard 55 copy</title><circle class="cls-1" cx="256" cy="256" r="256"/><path class="cls-2" d="M114.72,408.27a1.45,1.45,0,0,1,2.64.37l5.51,21.2,21.2-5.51a1.45,1.45,0,1,1,.73,2.8L122.19,433a1.46,1.46,0,0,1-1.76-1l-5.86-22.6A1.43,1.43,0,0,1,114.72,408.27Z"/><path class="cls-2" d="M121.85,434.64a3.07,3.07,0,0,1-3-2.26L113,409.77a3.06,3.06,0,0,1,.32-2.31h0a3.05,3.05,0,0,1,4.17-1.08,3.07,3.07,0,0,1,1.4,1.85L124,427.89l19.65-5.11a3.05,3.05,0,0,1,3.4,4.49,3,3,0,0,1-1.86,1.4l-22.62,5.87A2.74,2.74,0,0,1,121.85,434.64Z"/><path class="cls-2" d="M169.47,399.14a1.44,1.44,0,0,1,1.87-.8,1.42,1.42,0,0,1,.79.77l8.65,20.13,20.12-8.64a1.45,1.45,0,0,1,1.15,2.66l-21.47,9.2a1.45,1.45,0,0,1-1.9-.76l-9.2-21.46A1.44,1.44,0,0,1,169.47,399.14Z"/><path class="cls-2" d="M180,424.17a3.07,3.07,0,0,1-2.8-1.82L168,400.87a3.06,3.06,0,0,1,0-2.32h0a3,3,0,0,1,5.61-.07l8,18.67,18.65-8a3,3,0,0,1,2.41,5.6l-21.47,9.2A3.12,3.12,0,0,1,180,424.17Z"/><path class="cls-2" d="M209.88,445a1.44,1.44,0,0,1,1.66-1.18,1.43,1.43,0,0,1,.94.58l12.72,17.84L243,449.52a1.45,1.45,0,1,1,1.69,2.35l-19,13.55a1.44,1.44,0,0,1-2-.34l-13.55-19A1.48,1.48,0,0,1,209.88,445Z"/><path class="cls-2" d="M224.86,467.28a3.07,3.07,0,0,1-2.48-1.26l-13.55-19a3,3,0,0,1-.53-2.26h0a3,3,0,0,1,5.47-1.26L225.57,460l16.54-11.79a3,3,0,0,1,2.26-.52,3,3,0,0,1,2,1.23,3,3,0,0,1-.7,4.25l-19,13.55A3,3,0,0,1,224.86,467.28Z"/><path class="cls-2" d="M276.61,442.83a1.45,1.45,0,0,1,2.28-1.37l17.61,13.05,13-17.6a1.44,1.44,0,1,1,2.32,1.72L298,457.39a1.45,1.45,0,0,1-2,.3l-18.75-13.91A1.46,1.46,0,0,1,276.61,442.83Z"/><path class="cls-2" d="M296.78,459.56A3,3,0,0,1,295,459l-18.77-13.92a3,3,0,0,1-1.19-2h0a3,3,0,0,1,.56-2.26,3.07,3.07,0,0,1,2-1.2,3,3,0,0,1,2.26.57l16.31,12.09L308.25,436a3,3,0,0,1,4.9,3.62l-13.92,18.76A3.05,3.05,0,0,1,296.78,459.56Z"/><path class="cls-2" d="M320.45,412.66a1.44,1.44,0,0,1,2-1.74L342,420.8l9.87-19.55a1.44,1.44,0,1,1,2.58,1.29l-10.54,20.85A1.44,1.44,0,0,1,342,424L321.17,413.5A1.49,1.49,0,0,1,320.45,412.66Z"/><path class="cls-2" d="M342.64,425.78a3,3,0,0,1-1.35-.32l-20.84-10.54a3,3,0,0,1-1.52-1.76h0a3,3,0,0,1,1.94-3.84,3.11,3.11,0,0,1,2.32.17l18.13,9.16,9.15-18.13a3,3,0,1,1,5.44,2.74l-10.54,20.85A3.07,3.07,0,0,1,342.64,425.78Z"/><path class="cls-2" d="M377.36,427A1.44,1.44,0,0,1,379,424.9l21.1,5.9L406,409.71a1.44,1.44,0,0,1,2.78.77l-6.3,22.5a1.46,1.46,0,0,1-1.78,1l-22.48-6.31A1.41,1.41,0,0,1,377.36,427Z"/><path class="cls-2" d="M401.08,435.63a3.07,3.07,0,0,1-.79-.11l-22.49-6.31a3,3,0,0,1-1.83-1.43h0a3.07,3.07,0,0,1-.27-2.32,3,3,0,0,1,3.75-2.1L399,428.83l5.48-19.55a3.05,3.05,0,0,1,1.43-1.83,3.05,3.05,0,0,1,4.15,1.15,3.06,3.06,0,0,1,.29,2.31L404,433.41A3.08,3.08,0,0,1,401.08,435.63Z"/><path class="cls-2" d="M348,247.1a4,4,0,0,1,0-8c34.33,0,62.27-27.36,62.27-61,0-33-27.48-60.4-61.24-60.95a4,4,0,0,1-3-1.42,4.11,4.11,0,0,1-.9-3.16,59.51,59.51,0,0,0,.63-8.22c0-33.63-27.92-61-62.27-61A62.33,62.33,0,0,0,228.45,76,4,4,0,0,1,223,77.61a4.23,4.23,0,0,1-.74-.51,37.78,37.78,0,0,0-24.65-9.25,36.86,36.86,0,0,0-37.19,36.43,35,35,0,0,0,1.21,9.43,4.11,4.11,0,0,1-3,5,61,61,0,0,0-48.36,59.41c0,33.64,27.94,61,62.27,61a4.11,4.11,0,0,1,0,8c-38.75,0-70.28-31-70.28-69a68.82,68.82,0,0,1,50.76-66.23,42.67,42.67,0,0,1-.67-7.56,44.86,44.86,0,0,1,45.19-44.44,45.72,45.72,0,0,1,26.2,8.22,70.37,70.37,0,0,1,59.78-32.87c38.77,0,70.29,31,70.29,69a37,37,0,0,1-.23,5c36.06,2.83,64.7,32.87,64.72,68.76C418.33,216.14,386.79,247.1,348,247.1Z"/><path class="cls-2" d="M260.28,305.37c-33.51,0-67.43-8.22-67.43-24V199.21c0-15.73,33.92-24,67.43-24s67.42,8.22,67.42,24v82.18C327.7,297.13,293.78,305.37,260.28,305.37Zm0-122.12c-36.27,0-59.42,9.45-59.42,16v82.18c0,6.52,23.15,16,59.42,16s59.41-9.45,59.41-16V199.21C319.69,192.7,296.54,183.25,260.28,183.25Z"/><path class="cls-2" d="M260.28,250.58c-33.51,0-67.43-8.22-67.43-24a4,4,0,0,1,8,0c0,6.49,23.15,15.94,59.42,15.94s59.41-9.45,59.41-15.94a4,4,0,0,1,8,0h0C327.7,242.36,293.78,250.58,260.28,250.58Z"/><path class="cls-2" d="M260.28,223.19c-33.51,0-67.43-8.22-67.43-24a4.11,4.11,0,0,1,8,0c0,6.52,23.15,16,59.42,16s59.41-9.45,59.41-16a4.11,4.11,0,0,1,8-1.82,4,4,0,0,1,0,1.82C327.7,215,293.78,223.19,260.28,223.19Z"/><path class="cls-2" d="M260.28,278c-33.51,0-67.43-8.21-67.43-24a4.11,4.11,0,0,1,8,0c0,6.51,23.15,16,59.42,16s59.41-9.45,59.41-16a4.11,4.11,0,0,1,8,0C327.7,269.74,293.78,278,260.28,278Z"/><path class="cls-2" d="M291.73,229.6a4.11,4.11,0,0,1,4.11-4.11h0A4.11,4.11,0,0,1,300,229.6h0a4.11,4.11,0,0,1-4.11,4.11h0A4.11,4.11,0,0,1,291.73,229.6Z"/><path class="cls-2" d="M291.73,257a4.11,4.11,0,0,1,4.11-4.11h0A4.11,4.11,0,0,1,300,257h0a4.11,4.11,0,0,1-4.11,4.1h0A4.11,4.11,0,0,1,291.73,257Z"/><path class="cls-2" d="M291.73,284.29a4.11,4.11,0,0,1,4.11-4.11h0a4.11,4.11,0,0,1,4.11,4.11h0a4.11,4.11,0,0,1-4.11,4.11h0A4.11,4.11,0,0,1,291.73,284.29Z"/><path class="cls-2" d="M130.93,422.1a2.76,2.76,0,0,1-2.2-4.43l3.86-5.13a2.77,2.77,0,0,1,4.42,3.33L133.14,421A2.76,2.76,0,0,1,130.93,422.1Zm13.32-17.68A2.76,2.76,0,0,1,142,400l3.87-5.13a2.77,2.77,0,0,1,4.42,3.33l-3.87,5.13A2.76,2.76,0,0,1,144.25,404.42Zm13.32-17.68a2.81,2.81,0,0,1-1.67-.55,2.77,2.77,0,0,1-.54-3.88l3.87-5.13a2.76,2.76,0,1,1,4.41,3.33l-3.86,5.13A2.77,2.77,0,0,1,157.57,386.74Zm13.31-17.68a2.75,2.75,0,0,1-2.2-4.42l3.86-5.14a2.77,2.77,0,0,1,4.42,3.33L173.1,368A2.76,2.76,0,0,1,170.88,369.06Zm13.32-17.68A2.76,2.76,0,0,1,182,347l3.87-5.13a2.77,2.77,0,0,1,4.42,3.33l-3.87,5.13A2.76,2.76,0,0,1,184.2,351.38Zm13.32-17.68a2.76,2.76,0,0,1-2.21-4.43l3.87-5.13a2.76,2.76,0,1,1,4.41,3.33l-3.86,5.13A2.76,2.76,0,0,1,197.52,333.7ZM210.84,316a2.81,2.81,0,0,1-1.67-.55,2.76,2.76,0,0,1-.54-3.87l2-2.68a2.77,2.77,0,0,1,4.42,3.33l-2,2.67A2.75,2.75,0,0,1,210.84,316Z"/><path class="cls-2" d="M180.12,422.11a2.77,2.77,0,0,1-2.46-4l2.92-5.72a2.77,2.77,0,1,1,4.93,2.52l-2.93,5.72A2.78,2.78,0,0,1,180.12,422.11Zm10-19.52a2.88,2.88,0,0,1-1.26-.3,2.76,2.76,0,0,1-1.2-3.72l2.92-5.72a2.77,2.77,0,1,1,4.93,2.51l-2.92,5.72A2.77,2.77,0,0,1,190.09,402.59Zm10-19.51a2.77,2.77,0,0,1-2.46-4l2.93-5.72a2.76,2.76,0,0,1,4.92,2.52l-2.92,5.72A2.77,2.77,0,0,1,200.06,383.08Zm10-19.51a2.7,2.7,0,0,1-1.26-.31,2.77,2.77,0,0,1-1.21-3.72l2.93-5.72a2.76,2.76,0,0,1,4.92,2.52l-2.92,5.72A2.76,2.76,0,0,1,210,363.57Zm10-19.51a2.7,2.7,0,0,1-1.26-.31,2.76,2.76,0,0,1-1.2-3.72l2.92-5.72a2.77,2.77,0,1,1,4.93,2.52l-2.93,5.72A2.78,2.78,0,0,1,220,344.06Zm10-19.52a2.88,2.88,0,0,1-1.26-.3,2.76,2.76,0,0,1-1.2-3.72l2.92-5.72a2.77,2.77,0,0,1,4.93,2.51L232.44,323A2.74,2.74,0,0,1,230,324.54Z"/><path class="cls-2" d="M227.32,452.43a2.94,2.94,0,0,1-.51-.05,2.77,2.77,0,0,1-2.21-3.23l1.18-6.31a2.77,2.77,0,1,1,5.44,1L230,450.17A2.78,2.78,0,0,1,227.32,452.43ZM231.15,432a2.94,2.94,0,0,1-.51-.05,2.76,2.76,0,0,1-2.21-3.23l1.18-6.31a2.77,2.77,0,1,1,5.44,1l-1.19,6.31A2.77,2.77,0,0,1,231.15,432ZM235,411.53a3.15,3.15,0,0,1-.52,0,2.77,2.77,0,0,1-2.21-3.23l1.19-6.31a2.76,2.76,0,1,1,5.43,1l-1.18,6.32A2.77,2.77,0,0,1,235,411.53Zm3.82-20.45a3,3,0,0,1-.51-.05,2.77,2.77,0,0,1-2.21-3.23l1.19-6.31a2.76,2.76,0,1,1,5.43,1l-1.18,6.32A2.77,2.77,0,0,1,238.8,391.08Zm3.83-20.46a2.92,2.92,0,0,1-.51,0,2.77,2.77,0,0,1-2.21-3.23l1.18-6.32a2.77,2.77,0,1,1,5.44,1l-1.18,6.32A2.76,2.76,0,0,1,242.63,370.62Zm3.83-20.45a2.92,2.92,0,0,1-.51,0,2.78,2.78,0,0,1-2.21-3.23l1.18-6.32a2.77,2.77,0,0,1,5.44,1l-1.18,6.32A2.77,2.77,0,0,1,246.46,350.17Zm3.83-20.45a2.21,2.21,0,0,1-.51-.05,2.76,2.76,0,0,1-2.21-3.22l1.18-6.32a2.77,2.77,0,0,1,5.44,1L253,327.46A2.77,2.77,0,0,1,250.29,329.72Z"/><path class="cls-2" d="M296.15,456a2.77,2.77,0,0,1-2.72-2.27l-1.17-6.31a2.77,2.77,0,1,1,5.44-1l1.17,6.31a2.77,2.77,0,0,1-2.21,3.23A2.94,2.94,0,0,1,296.15,456Zm-3.91-21.06a2.75,2.75,0,0,1-2.71-2.26l-1.18-6.32a2.77,2.77,0,0,1,5.44-1l1.17,6.32a2.76,2.76,0,0,1-2.21,3.22A2.94,2.94,0,0,1,292.24,434.89Zm-3.91-21.06a2.77,2.77,0,0,1-2.71-2.26l-1.17-6.31a2.76,2.76,0,1,1,5.43-1l1.18,6.31a2.78,2.78,0,0,1-2.22,3.23A2.92,2.92,0,0,1,288.33,413.83Zm-3.9-21.05a2.77,2.77,0,0,1-2.72-2.26l-1.17-6.32a2.77,2.77,0,1,1,5.44-1l1.17,6.32a2.76,2.76,0,0,1-2.22,3.22A2.92,2.92,0,0,1,284.43,392.78Zm-3.91-21.06a2.77,2.77,0,0,1-2.72-2.26l-1.17-6.32a2.77,2.77,0,0,1,5.44-1l1.17,6.32a2.76,2.76,0,0,1-2.21,3.22A2.21,2.21,0,0,1,280.52,371.72Zm-3.91-21.05a2.78,2.78,0,0,1-2.72-2.27l-1.17-6.31a2.77,2.77,0,1,1,5.44-1l1.17,6.31a2.77,2.77,0,0,1-2.21,3.23A2.94,2.94,0,0,1,276.61,350.67Zm-3.91-21.06a2.77,2.77,0,0,1-2.71-2.26L268.81,321a2.77,2.77,0,0,1,5.44-1l1.18,6.32a2.77,2.77,0,0,1-2.22,3.22A2.94,2.94,0,0,1,272.7,329.61Z"/><path class="cls-2" d="M341.44,422.11a2.78,2.78,0,0,1-2.47-1.52l-2.92-5.72a2.77,2.77,0,0,1,4.93-2.51l2.92,5.72a2.77,2.77,0,0,1-1.21,3.72A2.69,2.69,0,0,1,341.44,422.11Zm-9.65-18.94a2.77,2.77,0,0,1-2.47-1.51l-2.92-5.72a2.77,2.77,0,1,1,4.93-2.51l2.92,5.72a2.77,2.77,0,0,1-1.21,3.72A2.68,2.68,0,0,1,331.79,403.17Zm-9.65-18.93a2.77,2.77,0,0,1-2.47-1.51L316.75,377a2.77,2.77,0,1,1,4.93-2.51l2.92,5.72a2.77,2.77,0,0,1-1.21,3.72A2.8,2.8,0,0,1,322.14,384.24Zm-9.65-18.93A2.77,2.77,0,0,1,310,363.8l-2.92-5.72a2.77,2.77,0,0,1,4.93-2.52l2.92,5.73a2.77,2.77,0,0,1-1.21,3.72A2.8,2.8,0,0,1,312.49,365.31Zm-9.66-18.93a2.76,2.76,0,0,1-2.46-1.51l-2.92-5.72a2.77,2.77,0,0,1,4.93-2.52l2.92,5.73a2.77,2.77,0,0,1-1.21,3.72A2.81,2.81,0,0,1,302.83,346.38Zm-9.65-18.93a2.76,2.76,0,0,1-2.46-1.51l-2.92-5.73a2.77,2.77,0,1,1,4.93-2.51l2.92,5.73a2.77,2.77,0,0,1-1.21,3.72A2.81,2.81,0,0,1,293.18,327.45Z"/><path class="cls-2" d="M400.94,434.11a2.79,2.79,0,0,1-2.19-1.07L394.82,428a2.76,2.76,0,1,1,4.37-3.38l3.94,5.07a2.77,2.77,0,0,1-2.19,4.46ZM388,417.41a2.77,2.77,0,0,1-2.19-1.07l-3.93-5.08a2.77,2.77,0,1,1,4.37-3.39l3.93,5.08a2.76,2.76,0,0,1-2.18,4.46ZM375,400.7a2.76,2.76,0,0,1-2.19-1.07l-3.94-5.08a2.77,2.77,0,0,1,4.37-3.39l3.94,5.08A2.76,2.76,0,0,1,375,400.7Zm-13-16.7a2.76,2.76,0,0,1-2.18-1.07L356,377.85a2.77,2.77,0,1,1,4.37-3.39l3.94,5.08a2.76,2.76,0,0,1-2.19,4.46Zm-12.95-16.71a2.79,2.79,0,0,1-2.19-1.07L343,361.14a2.77,2.77,0,1,1,4.37-3.39l3.94,5.08a2.76,2.76,0,0,1-2.19,4.46Zm-12.95-16.7a2.77,2.77,0,0,1-2.19-1.07l-3.94-5.08a2.77,2.77,0,0,1,4.38-3.39l3.93,5.08a2.76,2.76,0,0,1-2.18,4.46Zm-12.95-16.71a2.76,2.76,0,0,1-2.19-1.07l-3.94-5.08a2.77,2.77,0,0,1,4.37-3.39l3.94,5.08a2.76,2.76,0,0,1-2.18,4.46Zm-13-16.7a2.76,2.76,0,0,1-2.18-1.07l-2.29-3a2.77,2.77,0,1,1,4.37-3.39l2.29,2.95a2.77,2.77,0,0,1-2.19,4.47Z"/></svg>